PathFileType	4	(X/Y/Z)	/Users/mathieubourgeois/Desktop/Analyse/Traitement/Sujet_06/Data/Transformed_Sujet_06_velo_60.trc
DataRate	CameraRate	NumFrames	NumMarkers	Units	OrigDataRate	OrigDataStartFrame	OrigNumFrames
120.000000	120.000000	5	36	mm	120.000000	700	1868
Frame#	Time	RFHD			RANE			STRN			LANI			LKNE			T10			RHUM			RWRB			C7			LFWT			LTOE			RTOE			LWRA			LBWT			RBWT			RFWT			LKNI			RKNI			RKNE			LANE			RANI			LHEE			RHEE			LHUM			LRAD			RRAD			RWRA			LWRB			LFHD			LBHD			RBHD			RSHO			LSHO			CLAV			LCAR			RCAR			
		X1	Y1	Z1	X2	Y2	Z2	X3	Y3	Z3	X4	Y4	Z4	X5	Y5	Z5	X6	Y6	Z6	X7	Y7	Z7	X8	Y8	Z8	X9	Y9	Z9	X10	Y10	Z10	X11	Y11	Z11	X12	Y12	Z12	X13	Y13	Z13	X14	Y14	Z14	X15	Y15	Z15	X16	Y16	Z16	X17	Y17	Z17	X18	Y18	Z18	X19	Y19	Z19	X20	Y20	Z20	X21	Y21	Z21	X22	Y22	Z22	X23	Y23	Z23	X24	Y24	Z24	X25	Y25	Z25	X26	Y26	Z26	X27	Y27	Z27	X28	Y28	Z28	X29	Y29	Z29	X30	Y30	Z30	X31	Y31	Z31	X32	Y32	Z32	X33	Y33	Z33	X34	Y34	Z34	X35	Y35	Z35	X36	Y36	Z36	

701	5.833333333333333	256.9961547851562	1375.87744140625	116.8075637817382	-207.1361541748047	445.9355773925781	196.9956817626953	-49.86807250976563	1199.109741210938	47.61331939697258	96.3404541015625	400.0916137695312	-55.82074356079102	98.53121185302736	798.3299560546875	-121.4585800170899	-204.1792449951172	1349.466796875	56.85116958618153	187.0567321777343	1128.142700195312	220.8992919921875	390.3618469238281	1009.067016601562	180.8868560791016	30.90851211547851	1456.914428710938	53.68089675903312	-182.5334167480469	1110.913696289062	-55.93406677246103	252.4476318359375	324.1785583496094	-123.7881851196289	-100.5008544921875	288.0909118652344	199.7712707519531	413.1081237792969	1027.093505859375	-139.9145202636719	-343.3281860351562	1139.330688476562	-5.020825386047475	-339.1870727539062	1135.461547851562	104.8844604492186	-180.8181304931641	1100.072509765625	152.7406616210937	125.6503677368164	750.6007080078125	-29.10455703735355	64.33901214599608	696.4254760742188	124.9244689941406	47.67346572875974	744.9776000976562	218.0531158447265	68.65562438964845	394.92041015625	-134.5384216308594	-179.4757385253907	435.9830932617188	121.8969192504882	17.56648254394532	381.5132751464844	-94.43730163574222	-255.9886932373047	463.5673828125	147.211685180664	183.0985107421875	1123.621948242188	-180.6348419189453	220.6025695800782	1172.26025390625	-197.2142791748047	228.9921112060547	1161.769897460938	260.9393310546874	423.5219421386718	1028.053344726562	232.6308288574219	429.4090270996094	1031.357177734375	-201.0609741210938	258.2918090820312	1369.2041015625	-26.79028129577642	185.0029907226562	1500.510375976562	-32.86310958862312	185.8751220703125	1526.720703125	93.92333984374993	47.55097579956053	1407.582885742188	189.3486022949218	26.3594264984131	1401.48876953125	-105.6753768920899	35.1655044555664	1321.02490234375	47.43276977539055	488.5376586914062	1044.613403320312	-126.1655578613281	485.7239379882812	1049.90380859375	159.4406433105469	
702	5.841666666666667	257.05517578125	1376.009765625	117.2895965576171	-205.4355010986328	455.0803833007812	197.2791290283203	-49.59457397460938	1199.161987304688	47.70450210571281	95.71685791015625	390.6185302734375	-55.96891403198243	94.26319885253908	789.9104614257812	-121.9669342041016	-204.0649261474609	1349.430419921875	56.74703216552723	187.0884094238281	1128.092895507812	221.0048217773437	390.3912048339844	1009.053344726562	180.8880767822266	30.99737548828124	1456.99560546875	54.07357025146476	-182.3092498779297	1110.64599609375	-56.28545761108408	251.8850250244141	315.4101257324219	-123.8436126708984	-100.1869430541992	296.411376953125	199.7383575439453	413.2139892578125	1027.137573242188	-139.9639739990234	-342.9831848144531	1139.292846679688	-5.420833587646596	-339.0490417480469	1135.5751953125	104.5417633056639	-180.6316528320313	1100.215576171875	152.4638366699218	121.1358947753906	742.0977172851562	-29.63184738159183	68.72998809814452	702.5272827148438	125.4332504272461	52.02964401245114	750.7227783203125	218.7694549560546	67.8098831176758	385.7068481445312	-134.9927368164063	-178.053451538086	444.957763671875	122.1190795898437	16.65452003479005	371.7855834960938	-94.74223327636722	-254.4599609375	473.4106750488281	147.753677368164	183.3209533691407	1123.943603515625	-180.7001342773438	220.8492584228516	1172.555419921875	-197.1933288574219	228.9996032714843	1161.690551757812	261.0798645019531	423.5748901367187	1028.04443359375	232.6280364990234	429.4907531738281	1031.386108398438	-201.0948486328125	258.4956970214844	1369.498046875	-26.29975128173833	185.1347503662109	1500.772094726562	-32.37333679199226	185.8620758056641	1526.82080078125	94.4678649902343	47.57264328002928	1407.491088867188	189.6461791992187	26.63428497314455	1401.761108398438	-105.3194808959962	35.4025535583496	1321.15234375	47.61956405639641	488.6297302246094	1044.57177734375	-126.1982955932617	485.7276916503906	1049.900146484375	159.4270172119141	
703	5.85	257.12646484375	1376.165405273438	117.7968368530273	-203.4118347167969	464.091796875	197.533218383789	-48.86041259765626	1198.953125	47.86679840087883	93.64443206787109	382.0343933105469	-56.52531051635743	89.76746368408205	781.5277709960938	-122.4888610839844	-203.9793853759766	1349.380126953125	56.66934204101551	187.0967864990234	1128.032958984375	221.1027069091797	390.3966674804688	1009.055908203125	180.8941955566406	31.05158042907714	1457.036865234375	54.45365142822257	-182.0643463134766	1110.349975585938	-56.60542678833017	251.0241851806641	306.6915588378906	-123.8289947509765	-99.41146087646487	304.6583862304688	199.7129516601562	413.3066711425781	1027.145385742188	-140.0041046142578	-342.6864929199219	1139.266967773438	-5.809567451477163	-338.91943359375	1135.680786132812	104.1759719848632	-180.4900970458985	1100.376708984375	152.226104736328	116.3694076538086	733.6812744140625	-30.07460594177249	73.17855834960936	708.7633056640625	125.9012374877929	56.37786102294919	756.7620849609375	219.4632263183593	66.49648284912111	376.5961608886719	-135.3918609619141	-176.1797637939453	453.8312377929688	122.3815841674804	15.43203258514406	362.6649169921875	-95.195671081543	-252.3667144775391	482.9115600585938	148.0779113769531	183.503890991211	1124.228759765625	-180.7493286132813	221.1259155273438	1172.8134765625	-197.1599578857422	228.9858703613281	1161.594848632812	261.2201232910156	423.6069335937499	1028.035278320312	232.6554870605469	429.5950317382812	1031.412963867188	-201.1085662841797	258.6740417480469	1369.781005859375	-25.82062721252447	185.2378082275391	1500.978149414062	-31.78534507751472	185.83251953125	1526.96337890625	95.07784271240227	47.52145385742185	1407.399658203125	190.0031585693359	26.94254684448244	1402.053100585938	-104.8936843872071	35.51073837280273	1321.18798828125	47.91613388061516	488.70068359375	1044.541748046875	-126.2011947631836	485.7388916015625	1049.91064453125	159.4004364013672	
704	5.858333333333333	257.1708068847656	1376.306640625	118.2604293823242	-200.8063201904297	472.9164123535156	197.7427520751953	-48.59531402587891	1198.920043945312	48.00981521606437	91.55786895751953	373.5016174316406	-57.03754806518555	85.03833007812501	773.2542724609375	-123.137321472168	-203.910888671875	1349.3056640625	56.57526397705067	187.0895843505859	1127.96728515625	221.2033233642578	390.3859252929688	1009.060974121094	180.9161071777344	31.04859161376952	1457.074829101562	54.88425827026359	-181.8218231201172	1110.036499023438	-56.93729782104501	249.8448028564453	298.0205993652344	-123.7657012939453	-98.13523101806643	312.8973388671875	199.771499633789	413.3620910644531	1027.17236328125	-140.0220489501953	-342.3779907226562	1139.332763671875	-6.022583961486928	-338.8170471191406	1135.7841796875	103.8274688720702	-180.405502319336	1100.512939453125	152.0436859130859	111.6099014282227	725.2068481445312	-31.34015655517581	77.51544952392577	715.13720703125	126.3643341064453	60.66882324218747	762.9577026367188	220.1535034179687	64.82775115966798	367.7623596191406	-135.7858581542969	-173.7720336914063	462.5549926757812	122.6715927124023	13.78127288818361	353.8042297363281	-95.65650939941409	-249.8851470947266	492.2096252441406	148.4437866210937	183.6419219970703	1124.48291015625	-180.7751617431641	221.3790283203125	1173.081420898438	-197.1047058105469	228.9557342529297	1161.493774414062	261.3731384277343	423.6177062988281	1028.025390625	232.6824340820312	429.6577453613281	1031.40869140625	-201.1216430664062	258.8460998535156	1370.060668945312	-25.32476043701177	185.2882080078125	1501.196655273438	-31.24719047546394	185.7744445800781	1527.061401367188	95.65125274658196	47.43867492675779	1407.319213867188	190.4016571044921	27.14356613159181	1402.309936523438	-104.5343246459962	35.58747482299804	1321.26904296875	48.2255668640136	488.7442016601562	1044.51220703125	-126.2108459472656	485.7391662597656	1049.90771484375	159.4109649658203	
705	5.866666666666666	257.1209411621094	1376.440673828125	118.7806091308593	-197.7991943359375	481.8183898925781	197.9894256591796	-48.39836120605469	1198.8916015625	48.17594528198234	90.25229644775391	366.1385192871094	-57.75630950927735	80.06084442138673	765.1696166992188	-123.8106536865235	-203.8626098632812	1349.236694335938	56.47419357299793	187.0471038818359	1127.865112304688	221.326919555664	390.3723754882812	1009.035949707031	180.9453887939453	31.05270957946777	1457.096557617188	55.30877685546866	-181.6295471191406	1109.698120117188	-57.20621871948251	247.3843841552735	289.1171264648438	-124.0857849121094	-96.44030761718753	321.0807495117188	199.7448120117187	413.4039611816406	1027.1884765625	-140.0518493652344	-342.0667724609375	1139.254760742188	-6.3917374610902	-338.7472839355469	1135.85693359375	103.4320373535155	-180.3137512207032	1100.638671875	151.8189392089843	106.0485382080078	717.3156127929688	-31.21779251098636	80.03005981445311	722.2909545898438	127.6487808227539	64.89913177490232	769.4163818359375	220.8055572509765	62.97838211059572	359.4911499023438	-136.3585205078125	-170.9679870605469	471.1499938964844	122.9247970581054	11.80339336395265	345.2571105957031	-96.08635711669923	-247.0976257324219	501.1435852050781	148.8889007568359	183.7672424316407	1124.76025390625	-180.8159790039063	221.5714416503907	1173.34423828125	-197.0309295654297	228.901123046875	1161.347900390625	261.5236816406249	423.6092834472656	1028.012817382812	232.7164916992188	429.7314147949219	1031.421752929688	-201.1194458007812	258.9947509765625	1370.341918945312	-24.83721733093267	185.3289642333984	1501.433349609375	-30.70513916015632	185.6882934570312	1527.164428710938	96.2270202636718	47.38238906860349	1407.227783203125	190.7371063232421	27.31080245971681	1402.518676757812	-104.1975326538087	35.69224548339843	1321.345458984375	48.47974777221673	488.7665100097656	1044.518188476562	-126.2257843017578	485.7148132324219	1049.918090820312	159.4105377197266	
